<svg width="32" height="32" viewBox="0 0 32 32" fill="none" xmlns="http://www.w3.org/2000/svg">
  <!-- Background circle -->
  <circle cx="16" cy="16" r="16" fill="#3B82F6"/>
  
  <!-- Briefcase icon -->
  <path d="M8 12V10C8 8.89543 8.89543 8 10 8H22C23.1046 8 24 8.89543 24 10V12M8 12V20C8 21.1046 8.89543 22 10 22H22C23.1046 22 24 21.1046 24 20V12M8 12H24M12 8V6C12 5.44772 12.4477 5 13 5H19C19.5523 5 20 5.44772 20 6V8" stroke="white" stroke-width="1.5" stroke-linecap="round" stroke-linejoin="round"/>
  
  <!-- Small accent dots -->
  <circle cx="10" cy="16" r="1" fill="white" opacity="0.8"/>
  <circle cx="16" cy="16" r="1" fill="white" opacity="0.8"/>
  <circle cx="22" cy="16" r="1" fill="white" opacity="0.8"/>
</svg>